<?xml version="1.0" standalone="no"?>
<svg viewBox="0 0 200 200" xmlns="http://www.w3.org/2000/svg">
  <path fill="#08BDBA" d="M44.4,-75C58.9,-68.6,72.7,-59.3,75,-46.3C77.3,-33.3,67.9,-16.7,63.7,-2.4C59.5,11.8,60.4,23.6,53.8,29.1C47.2,34.6,33.2,33.9,23,43.9C12.8,54,6.4,74.9,0.5,74C-5.3,73,-10.6,50.3,-18.4,38.8C-26.1,27.4,-36.3,27.1,-46,22.5C-55.7,17.9,-64.9,8.9,-68.3,-2C-71.7,-12.9,-69.3,-25.7,-64.9,-39.5C-60.5,-53.3,-54.1,-68,-43,-76.3C-31.8,-84.6,-15.9,-86.5,-0.5,-85.8C15,-85,30,-81.4,44.4,-75Z" transform="translate(100 100)" />
</svg>
